<mxfile host="app.diagrams.net" modified="2020-06-12T03:36:49.242Z" agent="5.0 (Macintosh; Intel Mac OS X 10_15_4) AppleWebKit/605.1.15 (KHTML, like Gecko) Version/13.1 Safari/605.1.15" etag="DQkCIAvIOI7JR25OUWX_" version="13.2.3" type="github">
  <diagram id="VVFscvTJptGLVbUfnIZX" name="Page-1">
    <mxGraphModel dx="1022" dy="811" grid="1" gridSize="10" guides="1" tooltips="1" connect="1" arrows="1" fold="1" page="1" pageScale="1" pageWidth="827" pageHeight="1169" math="0" shadow="0">
      <root>
        <mxCell id="0" />
        <mxCell id="1" parent="0" />
        <mxCell id="Qlznd0HMcb2LpaV1HDth-1" value="&lt;div style=&quot;text-align: left&quot;&gt;RedPacketManager&lt;/div&gt;&lt;div style=&quot;text-align: left&quot;&gt;[Components]&lt;/div&gt;" style="rounded=1;whiteSpace=wrap;html=1;labelBackgroundColor=none;fillColor=#ffffff;fontColor=#000000;align=left;arcSize=5;strokeColor=#000000;verticalAlign=bottom;points=[[0.25,0,0],[0.5,0,0],[0.75,0,0],[1,0.25,0],[1,0.5,0],[1,0.75,0],[0.75,1,0],[0.5,1,0],[0.25,1,0],[0,0.75,0],[0,0.5,0],[0,0.25,0]];glass=0;" vertex="1" parent="1">
          <mxGeometry x="136" y="550" width="560" height="340" as="geometry" />
        </mxCell>
        <mxCell id="Qlznd0HMcb2LpaV1HDth-2" value="&lt;b&gt;user&lt;/b&gt;&lt;br&gt;&lt;div&gt;[Person]&lt;/div&gt;&lt;br&gt;&lt;div&gt;芒果TV用户&lt;/div&gt;" style="html=1;dashed=0;whitespace=wrap;fillColor=#DAE8FC;strokeColor=#6C8EBF;shape=mxgraph.c4.person;align=center;points=[[0.5,0,0],[1,0.5,0],[1,0.75,0],[0.75,1,0],[0.5,1,0],[0.25,1,0],[0,0.75,0],[0,0.5,0]];" vertex="1" parent="1">
          <mxGeometry x="132" y="90" width="160" height="130" as="geometry" />
        </mxCell>
        <mxCell id="Qlznd0HMcb2LpaV1HDth-3" value="&lt;b&gt;芒果长连接&lt;/b&gt;&lt;br&gt;&lt;div&gt;[Software System]&lt;/div&gt;&lt;br&gt;&lt;div&gt;红包雨主题&lt;/div&gt;" style="rounded=1;whiteSpace=wrap;html=1;labelBackgroundColor=none;fillColor=#dae8fc;fontColor=#000000;align=center;arcSize=10;strokeColor=#6c8ebf;points=[[0.25,0,0],[0.5,0,0],[0.75,0,0],[1,0.25,0],[1,0.5,0],[1,0.75,0],[0.75,1,0],[0.5,1,0],[0.25,1,0],[0,0.75,0],[0,0.5,0],[0,0.25,0]];" vertex="1" parent="1">
          <mxGeometry x="332" y="110" width="160" height="110.00000000000001" as="geometry" />
        </mxCell>
        <mxCell id="Qlznd0HMcb2LpaV1HDth-4" value="&lt;b&gt;广告SDK&lt;/b&gt;&lt;br&gt;&lt;div&gt;[Software System]&lt;/div&gt;&lt;br&gt;&lt;div&gt;红包雨通知&lt;/div&gt;" style="rounded=1;whiteSpace=wrap;html=1;labelBackgroundColor=none;fillColor=#dae8fc;fontColor=#000000;align=center;arcSize=10;strokeColor=#6c8ebf;points=[[0.25,0,0],[0.5,0,0],[0.75,0,0],[1,0.25,0],[1,0.5,0],[1,0.75,0],[0.75,1,0],[0.5,1,0],[0.25,1,0],[0,0.75,0],[0,0.5,0],[0,0.25,0]];" vertex="1" parent="1">
          <mxGeometry x="532" y="110" width="160" height="110.00000000000001" as="geometry" />
        </mxCell>
        <mxCell id="Qlznd0HMcb2LpaV1HDth-5" style="edgeStyle=orthogonalEdgeStyle;rounded=0;orthogonalLoop=1;jettySize=auto;html=1;exitX=1;exitY=0.25;exitDx=0;exitDy=0;exitPerimeter=0;entryX=1;entryY=0.5;entryDx=0;entryDy=0;entryPerimeter=0;dashed=1;strokeColor=#000000;strokeWidth=1;" edge="1" parent="1" source="Qlznd0HMcb2LpaV1HDth-6" target="Qlznd0HMcb2LpaV1HDth-18">
          <mxGeometry relative="1" as="geometry" />
        </mxCell>
        <mxCell id="Qlznd0HMcb2LpaV1HDth-6" value="MGRedPacketManager&lt;br&gt;&lt;div&gt;[Components&lt;span&gt;]&lt;/span&gt;&lt;/div&gt;&lt;br&gt;&lt;div&gt;红包雨管理组件&lt;/div&gt;" style="rounded=1;whiteSpace=wrap;html=1;labelBackgroundColor=none;fillColor=#f5f5f5;fontColor=#333333;align=center;arcSize=10;strokeColor=#666666;points=[[0.25,0,0],[0.5,0,0],[0.75,0,0],[1,0.25,0],[1,0.5,0],[1,0.75,0],[0.75,1,0],[0.5,1,0],[0.25,1,0],[0,0.75,0],[0,0.5,0],[0,0.25,0]];" vertex="1" parent="1">
          <mxGeometry x="332" y="390" width="160" height="110.00000000000001" as="geometry" />
        </mxCell>
        <mxCell id="Qlznd0HMcb2LpaV1HDth-7" value="&lt;div style=&quot;text-align: left&quot;&gt;&lt;div style=&quot;text-align: center&quot;&gt;&lt;b&gt;启动app&lt;/b&gt;&lt;/div&gt;&lt;div style=&quot;text-align: center&quot;&gt;[&lt;span style=&quot;font-family: &amp;#34;menlo&amp;#34; ; background-color: rgb(255 , 255 , 255)&quot;&gt;&lt;font style=&quot;font-size: 11px&quot;&gt;updateRedPacketTheme&lt;/font&gt;&lt;/span&gt;]&lt;br&gt;&lt;/div&gt;&lt;/div&gt;" style="edgeStyle=none;rounded=0;html=1;entryX=0.25;entryY=0;jettySize=auto;orthogonalLoop=1;strokeColor=#A8A8A8;strokeWidth=2;fontColor=#000000;jumpStyle=none;dashed=1;exitX=0.5;exitY=1;exitDx=0;exitDy=0;exitPerimeter=0;entryDx=0;entryDy=0;entryPerimeter=0;" edge="1" parent="1" source="Qlznd0HMcb2LpaV1HDth-2" target="Qlznd0HMcb2LpaV1HDth-6">
          <mxGeometry width="200" relative="1" as="geometry">
            <mxPoint x="272" y="440" as="sourcePoint" />
            <mxPoint x="472" y="440" as="targetPoint" />
          </mxGeometry>
        </mxCell>
        <mxCell id="Qlznd0HMcb2LpaV1HDth-8" value="&lt;div style=&quot;text-align: left&quot;&gt;&lt;div style=&quot;text-align: center&quot;&gt;&lt;b&gt;红包雨回调&lt;/b&gt;&lt;/div&gt;&lt;div style=&quot;text-align: center&quot;&gt;[rprain/rprainv2]&lt;/div&gt;&lt;/div&gt;" style="edgeStyle=none;rounded=0;html=1;jettySize=auto;orthogonalLoop=1;strokeColor=#A8A8A8;strokeWidth=2;fontColor=#000000;jumpStyle=none;dashed=1;exitX=0.5;exitY=1;exitDx=0;exitDy=0;exitPerimeter=0;" edge="1" parent="1" source="Qlznd0HMcb2LpaV1HDth-3" target="Qlznd0HMcb2LpaV1HDth-6">
          <mxGeometry width="200" relative="1" as="geometry">
            <mxPoint x="272" y="440" as="sourcePoint" />
            <mxPoint x="472" y="440" as="targetPoint" />
          </mxGeometry>
        </mxCell>
        <mxCell id="Qlznd0HMcb2LpaV1HDth-9" value="&lt;div style=&quot;text-align: left&quot;&gt;&lt;div style=&quot;text-align: center&quot;&gt;&lt;b&gt;Description&lt;/b&gt;&lt;/div&gt;&lt;div style=&quot;text-align: center&quot;&gt;[technology]&lt;/div&gt;&lt;/div&gt;" style="edgeStyle=none;rounded=0;html=1;entryX=0.75;entryY=0;jettySize=auto;orthogonalLoop=1;strokeColor=#A8A8A8;strokeWidth=2;fontColor=#000000;jumpStyle=none;dashed=1;exitX=0.5;exitY=1;exitDx=0;exitDy=0;exitPerimeter=0;entryDx=0;entryDy=0;entryPerimeter=0;" edge="1" parent="1" source="Qlznd0HMcb2LpaV1HDth-4" target="Qlznd0HMcb2LpaV1HDth-6">
          <mxGeometry width="200" relative="1" as="geometry">
            <mxPoint x="272" y="440" as="sourcePoint" />
            <mxPoint x="472" y="440" as="targetPoint" />
          </mxGeometry>
        </mxCell>
        <mxCell id="Qlznd0HMcb2LpaV1HDth-10" value="&lt;b&gt;红包雨皮肤&lt;/b&gt;&lt;br&gt;&lt;div&gt;&lt;br&gt;&lt;/div&gt;&lt;br&gt;&lt;div&gt;Description&lt;/div&gt;" style="rounded=1;whiteSpace=wrap;html=1;labelBackgroundColor=none;fillColor=#dae8fc;fontColor=#000000;align=center;arcSize=10;strokeColor=#6c8ebf;points=[[0.25,0,0],[0.5,0,0],[0.75,0,0],[1,0.25,0],[1,0.5,0],[1,0.75,0],[0.75,1,0],[0.5,1,0],[0.25,1,0],[0,0.75,0],[0,0.5,0],[0,0.25,0]];glass=0;" vertex="1" parent="1">
          <mxGeometry x="482" y="570" width="160" height="70" as="geometry" />
        </mxCell>
        <mxCell id="Qlznd0HMcb2LpaV1HDth-11" value="&lt;b&gt;红包雨角标&lt;/b&gt;&lt;br&gt;&lt;div&gt;&lt;br&gt;&lt;/div&gt;&lt;br&gt;&lt;div&gt;Description&lt;/div&gt;" style="rounded=1;whiteSpace=wrap;html=1;labelBackgroundColor=none;fillColor=#dae8fc;fontColor=#000000;align=center;arcSize=10;strokeColor=#6c8ebf;points=[[0.25,0,0],[0.5,0,0],[0.75,0,0],[1,0.25,0],[1,0.5,0],[1,0.75,0],[0.75,1,0],[0.5,1,0],[0.25,1,0],[0,0.75,0],[0,0.5,0],[0,0.25,0]];glass=0;" vertex="1" parent="1">
          <mxGeometry x="192" y="570" width="160" height="70" as="geometry" />
        </mxCell>
        <mxCell id="Qlznd0HMcb2LpaV1HDth-12" value="&lt;b&gt;红包雨主页面&lt;/b&gt;&lt;br&gt;&lt;div&gt;&lt;br&gt;&lt;/div&gt;&lt;br&gt;&lt;div&gt;Description&lt;/div&gt;" style="rounded=1;whiteSpace=wrap;html=1;labelBackgroundColor=none;fillColor=#dae8fc;fontColor=#000000;align=center;arcSize=10;strokeColor=#6c8ebf;points=[[0.25,0,0],[0.5,0,0],[0.75,0,0],[1,0.25,0],[1,0.5,0],[1,0.75,0],[0.75,1,0],[0.5,1,0],[0.25,1,0],[0,0.75,0],[0,0.5,0],[0,0.25,0]];glass=0;" vertex="1" parent="1">
          <mxGeometry x="192" y="670" width="160" height="70" as="geometry" />
        </mxCell>
        <mxCell id="Qlznd0HMcb2LpaV1HDth-13" value="&lt;b&gt;奖品领取&lt;/b&gt;&lt;br&gt;&lt;div&gt;&lt;br&gt;&lt;/div&gt;&lt;br&gt;&lt;div&gt;Description&lt;/div&gt;" style="rounded=1;whiteSpace=wrap;html=1;labelBackgroundColor=none;fillColor=#dae8fc;fontColor=#000000;align=center;arcSize=10;strokeColor=#6c8ebf;points=[[0.25,0,0],[0.5,0,0],[0.75,0,0],[1,0.25,0],[1,0.5,0],[1,0.75,0],[0.75,1,0],[0.5,1,0],[0.25,1,0],[0,0.75,0],[0,0.5,0],[0,0.25,0]];glass=0;" vertex="1" parent="1">
          <mxGeometry x="192" y="770" width="160" height="70" as="geometry" />
        </mxCell>
        <mxCell id="Qlznd0HMcb2LpaV1HDth-14" value="&lt;div style=&quot;text-align: left&quot;&gt;&lt;div style=&quot;text-align: center&quot;&gt;&lt;br&gt;&lt;/div&gt;&lt;/div&gt;" style="edgeStyle=orthogonalEdgeStyle;rounded=0;html=1;jettySize=auto;orthogonalLoop=1;strokeColor=#000000;strokeWidth=1;fontColor=#000000;jumpStyle=none;dashed=1;exitX=0;exitY=0.5;exitDx=0;exitDy=0;exitPerimeter=0;" edge="1" parent="1" source="Qlznd0HMcb2LpaV1HDth-6" target="Qlznd0HMcb2LpaV1HDth-11">
          <mxGeometry width="200" relative="1" as="geometry">
            <mxPoint x="342" y="455" as="sourcePoint" />
            <mxPoint x="202" y="755" as="targetPoint" />
          </mxGeometry>
        </mxCell>
        <mxCell id="Qlznd0HMcb2LpaV1HDth-15" value="&lt;div style=&quot;text-align: left&quot;&gt;&lt;div style=&quot;text-align: center&quot;&gt;&lt;br&gt;&lt;/div&gt;&lt;/div&gt;" style="edgeStyle=orthogonalEdgeStyle;rounded=0;html=1;jettySize=auto;orthogonalLoop=1;strokeColor=#000000;strokeWidth=1;fontColor=#000000;jumpStyle=none;dashed=1;exitX=1;exitY=0.5;exitDx=0;exitDy=0;exitPerimeter=0;entryX=0.5;entryY=0;entryDx=0;entryDy=0;entryPerimeter=0;" edge="1" parent="1" source="Qlznd0HMcb2LpaV1HDth-6" target="Qlznd0HMcb2LpaV1HDth-10">
          <mxGeometry width="200" relative="1" as="geometry">
            <mxPoint x="342" y="455" as="sourcePoint" />
            <mxPoint x="282" y="580" as="targetPoint" />
          </mxGeometry>
        </mxCell>
        <mxCell id="Qlznd0HMcb2LpaV1HDth-16" value="&lt;div style=&quot;text-align: left&quot;&gt;&lt;div style=&quot;text-align: center&quot;&gt;&lt;br&gt;&lt;/div&gt;&lt;/div&gt;" style="edgeStyle=orthogonalEdgeStyle;rounded=0;html=1;jettySize=auto;orthogonalLoop=1;strokeColor=#000000;strokeWidth=1;fontColor=#000000;jumpStyle=none;dashed=1;exitX=0;exitY=0.25;exitDx=0;exitDy=0;exitPerimeter=0;entryX=0;entryY=0.5;entryDx=0;entryDy=0;entryPerimeter=0;" edge="1" parent="1" source="Qlznd0HMcb2LpaV1HDth-6" target="Qlznd0HMcb2LpaV1HDth-12">
          <mxGeometry width="200" relative="1" as="geometry">
            <mxPoint x="342" y="455" as="sourcePoint" />
            <mxPoint x="282" y="580" as="targetPoint" />
          </mxGeometry>
        </mxCell>
        <mxCell id="Qlznd0HMcb2LpaV1HDth-17" value="&lt;div style=&quot;text-align: left&quot;&gt;&lt;div style=&quot;text-align: center&quot;&gt;&lt;br&gt;&lt;/div&gt;&lt;/div&gt;" style="edgeStyle=orthogonalEdgeStyle;rounded=0;html=1;jettySize=auto;orthogonalLoop=1;strokeColor=#000000;strokeWidth=1;fontColor=#000000;jumpStyle=none;dashed=1;exitX=0.5;exitY=1;exitDx=0;exitDy=0;exitPerimeter=0;" edge="1" parent="1" source="Qlznd0HMcb2LpaV1HDth-12" target="Qlznd0HMcb2LpaV1HDth-13">
          <mxGeometry width="200" relative="1" as="geometry">
            <mxPoint x="352" y="465" as="sourcePoint" />
            <mxPoint x="292" y="590" as="targetPoint" />
          </mxGeometry>
        </mxCell>
        <mxCell id="Qlznd0HMcb2LpaV1HDth-18" value="&lt;b&gt;红包雨计时器&lt;/b&gt;&lt;br&gt;&lt;div&gt;&lt;br&gt;&lt;/div&gt;&lt;br&gt;&lt;div&gt;Description&lt;/div&gt;" style="rounded=1;whiteSpace=wrap;html=1;labelBackgroundColor=none;fillColor=#dae8fc;fontColor=#000000;align=center;arcSize=10;strokeColor=#6c8ebf;points=[[0.25,0,0],[0.5,0,0],[0.75,0,0],[1,0.25,0],[1,0.5,0],[1,0.75,0],[0.75,1,0],[0.5,1,0],[0.25,1,0],[0,0.75,0],[0,0.5,0],[0,0.25,0]];glass=0;" vertex="1" parent="1">
          <mxGeometry x="482" y="670" width="160" height="70" as="geometry" />
        </mxCell>
      </root>
    </mxGraphModel>
  </diagram>
</mxfile>
